<?xml version="1.0" encoding="utf-8" standalone="no"?>
<!DOCTYPE svg PUBLIC "-//W3C//DTD SVG 1.1//EN"
  "http://www.w3.org/Graphics/SVG/1.1/DTD/svg11.dtd">
<svg xmlns:xlink="http://www.w3.org/1999/xlink" width="460.8pt" height="345.6pt" viewBox="0 0 460.8 345.6" xmlns="http://www.w3.org/2000/svg" version="1.1">
 <metadata>
  <rdf:RDF xmlns:dc="http://purl.org/dc/elements/1.1/" xmlns:cc="http://creativecommons.org/ns#" xmlns:rdf="http://www.w3.org/1999/02/22-rdf-syntax-ns#">
   <cc:Work>
    <dc:type rdf:resource="http://purl.org/dc/dcmitype/StillImage"/>
    <dc:date>2022-03-11T22:41:10.735734</dc:date>
    <dc:format>image/svg+xml</dc:format>
    <dc:creator>
     <cc:Agent>
      <dc:title>Matplotlib v3.5.1, https://matplotlib.org/</dc:title>
     </cc:Agent>
    </dc:creator>
   </cc:Work>
  </rdf:RDF>
 </metadata>
 <defs>
  <style type="text/css">*{stroke-linejoin: round; stroke-linecap: butt}</style>
 </defs>
 <g id="figure_1">
  <g id="patch_1">
   <path d="M 0 345.6 
L 460.8 345.6 
L 460.8 0 
L 0 0 
z
" style="fill: #ffffff"/>
  </g>
  <g id="axes_1">
   <g id="patch_2">
    <path d="M 89.206468 307.584 
L 383.113532 307.584 
L 383.113532 41.472 
L 89.206468 41.472 
z
" style="fill: #ffffff"/>
   </g>
   <g id="matplotlib.axis_1">
    <g id="xtick_1">
     <g id="line2d_1">
      <defs>
       <path id="mafa1a44e1f" d="M 0 0 
L 0 3.5 
" style="stroke: #000000; stroke-width: 0.8"/>
      </defs>
      <g>
       <use xlink:href="#mafa1a44e1f" x="89.206468" y="307.584" style="stroke: #000000; stroke-width: 0.8"/>
      </g>
     </g>
     <g id="text_1">
      <!-- 0 -->
      <g transform="translate(86.025218 322.182437)scale(0.1 -0.1)">
       <defs>
        <path id="DejaVuSans-30" d="M 2034 4250 
Q 1547 4250 1301 3770 
Q 1056 3291 1056 2328 
Q 1056 1369 1301 889 
Q 1547 409 2034 409 
Q 2525 409 2770 889 
Q 3016 1369 3016 2328 
Q 3016 3291 2770 3770 
Q 2525 4250 2034 4250 
z
M 2034 4750 
Q 2819 4750 3233 4129 
Q 3647 3509 3647 2328 
Q 3647 1150 3233 529 
Q 2819 -91 2034 -91 
Q 1250 -91 836 529 
Q 422 1150 422 2328 
Q 422 3509 836 4129 
Q 1250 4750 2034 4750 
z
" transform="scale(0.015625)"/>
       </defs>
       <use xlink:href="#DejaVuSans-30"/>
      </g>
     </g>
    </g>
    <g id="xtick_2">
     <g id="line2d_2">
      <g>
       <use xlink:href="#mafa1a44e1f" x="140.678809" y="307.584" style="stroke: #000000; stroke-width: 0.8"/>
      </g>
     </g>
     <g id="text_2">
      <!-- 100 -->
      <g transform="translate(131.135059 322.182437)scale(0.1 -0.1)">
       <defs>
        <path id="DejaVuSans-31" d="M 794 531 
L 1825 531 
L 1825 4091 
L 703 3866 
L 703 4441 
L 1819 4666 
L 2450 4666 
L 2450 531 
L 3481 531 
L 3481 0 
L 794 0 
L 794 531 
z
" transform="scale(0.015625)"/>
       </defs>
       <use xlink:href="#DejaVuSans-31"/>
       <use xlink:href="#DejaVuSans-30" x="63.623047"/>
       <use xlink:href="#DejaVuSans-30" x="127.246094"/>
      </g>
     </g>
    </g>
    <g id="xtick_3">
     <g id="line2d_3">
      <g>
       <use xlink:href="#mafa1a44e1f" x="192.151149" y="307.584" style="stroke: #000000; stroke-width: 0.8"/>
      </g>
     </g>
     <g id="text_3">
      <!-- 200 -->
      <g transform="translate(182.607399 322.182437)scale(0.1 -0.1)">
       <defs>
        <path id="DejaVuSans-32" d="M 1228 531 
L 3431 531 
L 3431 0 
L 469 0 
L 469 531 
Q 828 903 1448 1529 
Q 2069 2156 2228 2338 
Q 2531 2678 2651 2914 
Q 2772 3150 2772 3378 
Q 2772 3750 2511 3984 
Q 2250 4219 1831 4219 
Q 1534 4219 1204 4116 
Q 875 4013 500 3803 
L 500 4441 
Q 881 4594 1212 4672 
Q 1544 4750 1819 4750 
Q 2544 4750 2975 4387 
Q 3406 4025 3406 3419 
Q 3406 3131 3298 2873 
Q 3191 2616 2906 2266 
Q 2828 2175 2409 1742 
Q 1991 1309 1228 531 
z
" transform="scale(0.015625)"/>
       </defs>
       <use xlink:href="#DejaVuSans-32"/>
       <use xlink:href="#DejaVuSans-30" x="63.623047"/>
       <use xlink:href="#DejaVuSans-30" x="127.246094"/>
      </g>
     </g>
    </g>
    <g id="xtick_4">
     <g id="line2d_4">
      <g>
       <use xlink:href="#mafa1a44e1f" x="243.623489" y="307.584" style="stroke: #000000; stroke-width: 0.8"/>
      </g>
     </g>
     <g id="text_4">
      <!-- 300 -->
      <g transform="translate(234.079739 322.182437)scale(0.1 -0.1)">
       <defs>
        <path id="DejaVuSans-33" d="M 2597 2516 
Q 3050 2419 3304 2112 
Q 3559 1806 3559 1356 
Q 3559 666 3084 287 
Q 2609 -91 1734 -91 
Q 1441 -91 1130 -33 
Q 819 25 488 141 
L 488 750 
Q 750 597 1062 519 
Q 1375 441 1716 441 
Q 2309 441 2620 675 
Q 2931 909 2931 1356 
Q 2931 1769 2642 2001 
Q 2353 2234 1838 2234 
L 1294 2234 
L 1294 2753 
L 1863 2753 
Q 2328 2753 2575 2939 
Q 2822 3125 2822 3475 
Q 2822 3834 2567 4026 
Q 2313 4219 1838 4219 
Q 1578 4219 1281 4162 
Q 984 4106 628 3988 
L 628 4550 
Q 988 4650 1302 4700 
Q 1616 4750 1894 4750 
Q 2613 4750 3031 4423 
Q 3450 4097 3450 3541 
Q 3450 3153 3228 2886 
Q 3006 2619 2597 2516 
z
" transform="scale(0.015625)"/>
       </defs>
       <use xlink:href="#DejaVuSans-33"/>
       <use xlink:href="#DejaVuSans-30" x="63.623047"/>
       <use xlink:href="#DejaVuSans-30" x="127.246094"/>
      </g>
     </g>
    </g>
    <g id="xtick_5">
     <g id="line2d_5">
      <g>
       <use xlink:href="#mafa1a44e1f" x="295.09583" y="307.584" style="stroke: #000000; stroke-width: 0.8"/>
      </g>
     </g>
     <g id="text_5">
      <!-- 400 -->
      <g transform="translate(285.55208 322.182437)scale(0.1 -0.1)">
       <defs>
        <path id="DejaVuSans-34" d="M 2419 4116 
L 825 1625 
L 2419 1625 
L 2419 4116 
z
M 2253 4666 
L 3047 4666 
L 3047 1625 
L 3713 1625 
L 3713 1100 
L 3047 1100 
L 3047 0 
L 2419 0 
L 2419 1100 
L 313 1100 
L 313 1709 
L 2253 4666 
z
" transform="scale(0.015625)"/>
       </defs>
       <use xlink:href="#DejaVuSans-34"/>
       <use xlink:href="#DejaVuSans-30" x="63.623047"/>
       <use xlink:href="#DejaVuSans-30" x="127.246094"/>
      </g>
     </g>
    </g>
    <g id="xtick_6">
     <g id="line2d_6">
      <g>
       <use xlink:href="#mafa1a44e1f" x="346.56817" y="307.584" style="stroke: #000000; stroke-width: 0.8"/>
      </g>
     </g>
     <g id="text_6">
      <!-- 500 -->
      <g transform="translate(337.02442 322.182437)scale(0.1 -0.1)">
       <defs>
        <path id="DejaVuSans-35" d="M 691 4666 
L 3169 4666 
L 3169 4134 
L 1269 4134 
L 1269 2991 
Q 1406 3038 1543 3061 
Q 1681 3084 1819 3084 
Q 2600 3084 3056 2656 
Q 3513 2228 3513 1497 
Q 3513 744 3044 326 
Q 2575 -91 1722 -91 
Q 1428 -91 1123 -41 
Q 819 9 494 109 
L 494 744 
Q 775 591 1075 516 
Q 1375 441 1709 441 
Q 2250 441 2565 725 
Q 2881 1009 2881 1497 
Q 2881 1984 2565 2268 
Q 2250 2553 1709 2553 
Q 1456 2553 1204 2497 
Q 953 2441 691 2322 
L 691 4666 
z
" transform="scale(0.015625)"/>
       </defs>
       <use xlink:href="#DejaVuSans-35"/>
       <use xlink:href="#DejaVuSans-30" x="63.623047"/>
       <use xlink:href="#DejaVuSans-30" x="127.246094"/>
      </g>
     </g>
    </g>
   </g>
   <g id="matplotlib.axis_2">
    <g id="ytick_1">
     <g id="line2d_7">
      <defs>
       <path id="mbda579d9d2" d="M 0 0 
L -3.5 0 
" style="stroke: #000000; stroke-width: 0.8"/>
      </defs>
      <g>
       <use xlink:href="#mbda579d9d2" x="89.206468" y="41.472" style="stroke: #000000; stroke-width: 0.8"/>
      </g>
     </g>
     <g id="text_7">
      <!-- 0 -->
      <g transform="translate(75.843968 45.271219)scale(0.1 -0.1)">
       <use xlink:href="#DejaVuSans-30"/>
      </g>
     </g>
    </g>
    <g id="ytick_2">
     <g id="line2d_8">
      <g>
       <use xlink:href="#mbda579d9d2" x="89.206468" y="92.94434" style="stroke: #000000; stroke-width: 0.8"/>
      </g>
     </g>
     <g id="text_8">
      <!-- 100 -->
      <g transform="translate(63.118968 96.743559)scale(0.1 -0.1)">
       <use xlink:href="#DejaVuSans-31"/>
       <use xlink:href="#DejaVuSans-30" x="63.623047"/>
       <use xlink:href="#DejaVuSans-30" x="127.246094"/>
      </g>
     </g>
    </g>
    <g id="ytick_3">
     <g id="line2d_9">
      <g>
       <use xlink:href="#mbda579d9d2" x="89.206468" y="144.416681" style="stroke: #000000; stroke-width: 0.8"/>
      </g>
     </g>
     <g id="text_9">
      <!-- 200 -->
      <g transform="translate(63.118968 148.2159)scale(0.1 -0.1)">
       <use xlink:href="#DejaVuSans-32"/>
       <use xlink:href="#DejaVuSans-30" x="63.623047"/>
       <use xlink:href="#DejaVuSans-30" x="127.246094"/>
      </g>
     </g>
    </g>
    <g id="ytick_4">
     <g id="line2d_10">
      <g>
       <use xlink:href="#mbda579d9d2" x="89.206468" y="195.889021" style="stroke: #000000; stroke-width: 0.8"/>
      </g>
     </g>
     <g id="text_10">
      <!-- 300 -->
      <g transform="translate(63.118968 199.68824)scale(0.1 -0.1)">
       <use xlink:href="#DejaVuSans-33"/>
       <use xlink:href="#DejaVuSans-30" x="63.623047"/>
       <use xlink:href="#DejaVuSans-30" x="127.246094"/>
      </g>
     </g>
    </g>
    <g id="ytick_5">
     <g id="line2d_11">
      <g>
       <use xlink:href="#mbda579d9d2" x="89.206468" y="247.361362" style="stroke: #000000; stroke-width: 0.8"/>
      </g>
     </g>
     <g id="text_11">
      <!-- 400 -->
      <g transform="translate(63.118968 251.16058)scale(0.1 -0.1)">
       <use xlink:href="#DejaVuSans-34"/>
       <use xlink:href="#DejaVuSans-30" x="63.623047"/>
       <use xlink:href="#DejaVuSans-30" x="127.246094"/>
      </g>
     </g>
    </g>
    <g id="ytick_6">
     <g id="line2d_12">
      <g>
       <use xlink:href="#mbda579d9d2" x="89.206468" y="298.833702" style="stroke: #000000; stroke-width: 0.8"/>
      </g>
     </g>
     <g id="text_12">
      <!-- 500 -->
      <g transform="translate(63.118968 302.632921)scale(0.1 -0.1)">
       <use xlink:href="#DejaVuSans-35"/>
       <use xlink:href="#DejaVuSans-30" x="63.623047"/>
       <use xlink:href="#DejaVuSans-30" x="127.246094"/>
      </g>
     </g>
    </g>
   </g>
   <g id="line2d_13">
    <path d="M 207.078128 83.679319 
L 205.019234 84.708766 
L 203.475064 85.223489 
L 198.32783 87.797106 
L 196.78366 88.31183 
L 191.636426 90.885447 
L 190.092255 91.40017 
L 184.945021 93.973787 
L 183.400851 94.488511 
L 178.253617 97.062128 
L 176.709447 97.576851 
L 171.562213 100.150468 
L 170.018043 100.665191 
L 164.870809 103.238809 
L 163.326638 103.753532 
L 158.179404 106.327149 
L 156.635234 106.841872 
L 151.488 109.415489 
L 149.94383 109.930213 
L 144.796596 112.50383 
L 143.252426 113.018553 
L 138.105191 115.59217 
L 136.561021 116.106894 
L 135.531574 116.621617 
L 135.016851 117.13634 
L 137.075745 118.165787 
L 137.590468 118.680511 
L 139.649362 119.709957 
L 140.164085 120.224681 
L 143.252426 121.768851 
L 143.767149 122.283574 
L 145.826043 123.313021 
L 146.340766 123.827745 
L 148.39966 124.857191 
L 148.914383 125.371915 
L 150.973277 126.401362 
L 151.488 126.916085 
L 153.546894 127.945532 
L 154.061617 128.460255 
L 156.120511 129.489702 
L 156.635234 130.004426 
L 158.694128 131.033872 
L 159.208851 131.548596 
L 162.297191 133.092766 
L 162.811915 133.607489 
L 164.870809 134.636936 
L 165.385532 135.15166 
L 167.444426 136.181106 
L 167.959149 136.69583 
L 170.018043 137.725277 
L 170.532766 138.24 
L 172.59166 139.269447 
L 173.106383 139.78417 
L 175.165277 140.813617 
L 175.68 141.32834 
L 178.76834 142.872511 
L 179.283064 143.387234 
L 181.341957 144.416681 
L 181.856681 144.931404 
L 183.915574 145.960851 
L 184.430298 146.475574 
L 186.489191 147.505021 
L 187.003915 148.019745 
L 189.062809 149.049191 
L 189.577532 149.563915 
L 191.636426 150.593362 
L 192.151149 151.108085 
L 195.239489 152.652255 
L 195.754213 153.166979 
L 197.813106 154.196426 
L 198.842553 155.225872 
L 198.32783 155.740596 
L 188.033362 160.88783 
L 187.518638 161.402553 
L 178.253617 166.035064 
L 177.738894 166.549787 
L 178.253617 167.064511 
L 180.312511 168.093957 
L 180.827234 168.608681 
L 182.886128 169.638128 
L 183.400851 170.152851 
L 185.459745 171.182298 
L 185.974468 171.697021 
L 188.033362 172.726468 
L 188.548085 173.241191 
L 190.606979 174.270638 
L 191.121702 174.785362 
L 194.210043 176.329532 
L 194.724766 176.844255 
L 196.78366 177.873702 
L 197.298383 178.388426 
L 199.357277 179.417872 
L 199.872 179.932596 
L 201.930894 180.962043 
L 202.445617 181.476766 
L 204.504511 182.506213 
L 205.019234 183.020936 
L 207.078128 184.050383 
L 207.592851 184.565106 
L 209.651745 185.594553 
L 210.166468 186.109277 
L 212.225362 187.138723 
L 212.740085 187.653447 
L 214.798979 188.682894 
L 215.313702 189.197617 
L 217.372596 190.227064 
L 217.887319 190.741787 
L 219.946213 191.771234 
L 220.460936 192.285957 
L 222.51983 193.315404 
L 223.034553 193.830128 
L 225.093447 194.859574 
L 225.60817 195.374298 
L 227.667064 196.403745 
L 228.181787 196.918468 
L 230.240681 197.947915 
L 230.755404 198.462638 
L 232.814298 199.492085 
L 233.329021 200.006809 
L 235.387915 201.036255 
L 235.387915 204.124596 
L 233.843745 204.639319 
L 231.784851 205.668766 
L 230.240681 206.183489 
L 229.211234 206.698213 
L 227.667064 207.212936 
L 225.60817 208.242383 
L 224.064 208.757106 
L 222.005106 209.786553 
L 220.460936 210.301277 
L 219.431489 210.816 
L 222.51983 212.36017 
L 223.034553 212.874894 
L 226.122894 214.419064 
L 226.637617 214.933787 
L 228.696511 215.963234 
L 229.211234 216.477957 
L 232.299574 218.022128 
L 232.814298 218.536851 
L 234.873191 219.566298 
L 235.387915 219.566298 
L 236.417362 220.595745 
L 236.932085 220.595745 
L 237.446809 221.110468 
L 237.961532 221.110468 
L 238.990979 222.139915 
L 239.505702 222.139915 
L 240.020426 222.654638 
L 240.535149 222.654638 
L 241.049872 223.169362 
L 241.564596 223.169362 
L 242.594043 224.198809 
L 243.108766 224.198809 
L 243.623489 224.713532 
L 244.138213 224.713532 
L 245.16766 225.742979 
L 245.682383 225.742979 
L 246.197106 226.257702 
L 246.71183 226.257702 
L 247.226553 226.772426 
L 247.741277 226.772426 
L 248.770723 227.801872 
L 249.285447 227.801872 
L 249.80017 228.316596 
L 250.314894 228.316596 
L 250.829617 228.831319 
L 251.34434 228.831319 
L 252.373787 229.860766 
L 252.888511 229.860766 
L 253.403234 230.375489 
L 253.917957 230.375489 
L 254.947404 231.404936 
L 255.462128 231.404936 
L 255.976851 231.91966 
L 256.491574 231.91966 
L 257.006298 232.434383 
L 257.521021 232.434383 
L 258.550468 233.46383 
L 259.065191 233.46383 
L 259.579915 233.978553 
L 260.094638 233.978553 
L 260.609362 234.493277 
L 261.124085 234.493277 
L 262.153532 235.522723 
L 262.668255 235.522723 
L 263.182979 236.037447 
L 263.697702 236.037447 
L 264.727149 237.066894 
L 265.241872 237.066894 
L 265.756596 237.581617 
L 266.271319 237.581617 
L 266.786043 238.09634 
L 267.300766 238.09634 
L 268.330213 239.125787 
L 268.844936 239.125787 
L 269.35966 239.640511 
L 269.874383 239.640511 
L 270.90383 240.669957 
L 271.418553 240.669957 
L 271.933277 241.184681 
L 272.448 241.184681 
L 272.962723 241.699404 
L 273.477447 241.699404 
L 274.506894 242.728851 
L 275.021617 242.728851 
L 275.53634 243.243574 
L 276.051064 243.243574 
L 276.565787 243.758298 
L 277.080511 243.758298 
L 278.109957 244.787745 
L 278.624681 244.787745 
L 279.139404 245.302468 
L 279.654128 245.302468 
L 280.683574 246.331915 
L 281.198298 246.331915 
L 281.713021 246.846638 
L 282.227745 246.846638 
L 282.742468 247.361362 
L 283.257191 247.361362 
L 284.286638 248.390809 
L 284.801362 248.390809 
L 285.316085 248.905532 
L 285.830809 248.905532 
L 286.345532 249.420255 
L 286.860255 249.420255 
L 287.889702 250.449702 
L 288.404426 250.449702 
L 288.919149 250.964426 
L 289.433872 250.964426 
L 290.463319 251.993872 
L 290.978043 251.993872 
L 291.492766 252.508596 
L 292.007489 252.508596 
L 292.522213 253.023319 
L 293.036936 253.023319 
L 294.066383 254.052766 
L 294.581106 254.052766 
L 295.09583 254.567489 
L 295.610553 254.567489 
L 296.64 255.596936 
L 297.154723 255.596936 
L 297.669447 256.11166 
L 298.18417 256.11166 
L 298.698894 256.626383 
L 299.213617 256.626383 
L 300.243064 257.65583 
L 300.757787 257.65583 
L 301.272511 258.170553 
L 301.787234 258.170553 
L 302.301957 258.685277 
L 302.816681 258.685277 
L 303.846128 259.714723 
L 304.360851 259.714723 
L 304.875574 260.229447 
L 305.390298 260.229447 
L 306.419745 261.258894 
L 306.934468 261.258894 
L 307.449191 261.773617 
L 307.963915 261.773617 
L 308.478638 262.28834 
L 308.993362 262.28834 
L 310.022809 263.317787 
L 310.537532 263.317787 
L 311.052255 263.832511 
L 311.566979 263.832511 
L 312.081702 264.347234 
L 312.596426 264.347234 
L 313.625872 265.376681 
L 314.140596 265.376681 
L 314.655319 265.891404 
L 315.170043 265.891404 
L 315.684766 266.406128 
L 316.199489 266.406128 
L 317.228936 267.435574 
L 317.74366 267.435574 
L 318.258383 267.950298 
L 318.773106 267.950298 
L 319.802553 268.979745 
L 319.28783 268.465021 
L 319.28783 267.950298 
L 317.228936 265.891404 
L 317.228936 265.376681 
L 315.684766 263.832511 
L 315.684766 263.317787 
L 313.625872 261.258894 
L 313.625872 260.74417 
L 312.081702 259.2 
L 312.081702 258.685277 
L 310.022809 256.626383 
L 310.022809 256.11166 
L 308.478638 254.567489 
L 308.478638 254.052766 
L 306.419745 251.993872 
L 306.419745 251.479149 
L 304.875574 249.934979 
L 304.875574 249.420255 
L 302.816681 247.361362 
L 302.816681 246.846638 
L 301.272511 245.302468 
L 301.272511 244.787745 
L 300.757787 244.273021 
L 299.72834 243.758298 
L 299.213617 243.243574 
L 299.213617 242.728851 
L 298.18417 241.699404 
L 298.18417 241.184681 
L 297.154723 240.155234 
L 297.154723 239.640511 
L 295.610553 238.09634 
L 295.610553 237.581617 
L 294.581106 236.55217 
L 294.581106 236.037447 
L 293.55166 235.522723 
L 293.55166 235.008 
L 292.007489 233.46383 
L 292.007489 232.949106 
L 290.978043 231.91966 
L 290.978043 231.404936 
L 289.948596 230.890213 
L 289.948596 230.375489 
L 288.404426 228.831319 
L 288.404426 228.316596 
L 287.374979 227.287149 
L 287.374979 226.772426 
L 286.345532 226.257702 
L 286.345532 225.742979 
L 284.801362 224.198809 
L 284.801362 223.684085 
L 283.771915 222.654638 
L 283.771915 222.139915 
L 282.742468 221.625191 
L 282.742468 221.110468 
L 281.198298 219.566298 
L 281.198298 219.051574 
L 279.139404 216.992681 
L 279.139404 216.477957 
L 277.595234 214.933787 
L 277.595234 214.419064 
L 275.53634 212.36017 
L 275.53634 211.845447 
L 273.99217 210.301277 
L 273.99217 209.786553 
L 271.933277 207.72766 
L 271.933277 207.212936 
L 270.389106 205.668766 
L 270.389106 205.154043 
L 268.330213 203.095149 
L 268.330213 202.580426 
L 266.786043 201.036255 
L 266.786043 200.521532 
L 264.727149 198.462638 
L 264.727149 197.947915 
L 263.182979 196.403745 
L 263.182979 195.889021 
L 261.638809 194.344851 
L 261.638809 193.315404 
L 265.756596 191.256511 
L 267.300766 190.741787 
L 276.565787 186.109277 
L 272.962723 182.506213 
L 271.933277 181.991489 
L 271.933277 181.476766 
L 270.90383 180.962043 
L 270.90383 180.447319 
L 269.874383 179.932596 
L 263.182979 173.241191 
L 262.153532 172.726468 
L 262.153532 172.211745 
L 261.124085 171.697021 
L 261.124085 171.182298 
L 260.094638 170.667574 
L 253.917957 164.490894 
L 252.888511 163.97617 
L 252.888511 163.461447 
L 251.859064 162.946723 
L 251.859064 162.432 
L 250.829617 161.917277 
L 250.829617 161.402553 
L 249.80017 160.88783 
L 243.623489 154.711149 
L 242.594043 154.196426 
L 242.594043 153.681702 
L 241.564596 153.166979 
L 241.564596 152.652255 
L 240.535149 152.137532 
L 240.535149 151.622809 
L 239.505702 151.108085 
L 233.843745 145.446128 
L 232.814298 144.931404 
L 232.814298 144.416681 
L 231.784851 143.901957 
L 231.784851 143.387234 
L 230.755404 142.872511 
L 230.240681 142.357787 
L 230.240681 141.843064 
L 232.299574 140.813617 
L 233.843745 140.298894 
L 234.873191 139.78417 
L 236.417362 139.269447 
L 237.446809 138.754723 
L 238.990979 138.24 
L 240.020426 137.725277 
L 243.108766 136.69583 
L 245.16766 135.666383 
L 243.623489 134.122213 
L 243.623489 133.607489 
L 242.594043 132.578043 
L 242.594043 132.063319 
L 241.049872 130.519149 
L 241.049872 130.004426 
L 239.505702 128.460255 
L 239.505702 127.945532 
L 238.476255 126.916085 
L 238.476255 126.401362 
L 236.932085 124.857191 
L 236.932085 124.342468 
L 235.902638 123.313021 
L 235.902638 122.798298 
L 234.358468 121.254128 
L 234.358468 120.739404 
L 233.329021 119.709957 
L 233.329021 119.195234 
L 231.784851 117.651064 
L 231.784851 117.13634 
L 230.755404 116.106894 
L 230.755404 115.59217 
L 229.211234 114.048 
L 229.211234 113.533277 
L 228.181787 112.50383 
L 228.181787 111.989106 
L 226.637617 110.444936 
L 226.637617 109.930213 
L 225.093447 108.386043 
L 225.093447 107.871319 
L 224.064 106.841872 
L 224.064 106.327149 
L 222.51983 104.782979 
L 222.51983 104.268255 
L 221.490383 103.238809 
L 221.490383 102.724085 
L 219.946213 101.179915 
L 219.946213 100.665191 
L 218.916766 99.635745 
L 218.916766 99.121021 
L 217.372596 97.576851 
L 217.372596 97.062128 
L 216.343149 96.032681 
L 216.343149 95.517957 
L 214.798979 93.973787 
L 214.798979 93.459064 
L 213.769532 92.429617 
L 213.769532 91.914894 
L 212.225362 90.370723 
L 212.225362 89.856 
L 210.681191 88.31183 
L 210.681191 87.797106 
L 209.651745 86.76766 
L 209.651745 86.252936 
L 208.622298 85.223489 
L 208.622298 84.708766 
L 207.592851 83.679319 
L 207.592851 83.679319 
" clip-path="url(#p17dd042861)" style="fill: none; stroke: #000000; stroke-width: 1.5; stroke-linecap: square"/>
   </g>
   <g id="patch_3">
    <path d="M 89.206468 307.584 
L 89.206468 41.472 
" style="fill: none; stroke: #000000; stroke-width: 0.8; stroke-linejoin: miter; stroke-linecap: square"/>
   </g>
   <g id="patch_4">
    <path d="M 383.113532 307.584 
L 383.113532 41.472 
" style="fill: none; stroke: #000000; stroke-width: 0.8; stroke-linejoin: miter; stroke-linecap: square"/>
   </g>
   <g id="patch_5">
    <path d="M 89.206468 307.584 
L 383.113532 307.584 
" style="fill: none; stroke: #000000; stroke-width: 0.8; stroke-linejoin: miter; stroke-linecap: square"/>
   </g>
   <g id="patch_6">
    <path d="M 89.206468 41.472 
L 383.113532 41.472 
" style="fill: none; stroke: #000000; stroke-width: 0.8; stroke-linejoin: miter; stroke-linecap: square"/>
   </g>
  </g>
 </g>
 <defs>
  <clipPath id="p17dd042861">
   <rect x="89.206468" y="41.472" width="293.907064" height="266.112"/>
  </clipPath>
 </defs>
</svg>
