<?xml version="1.0" encoding="utf-8" standalone="no"?>
<!DOCTYPE svg PUBLIC "-//W3C//DTD SVG 1.1//EN"
  "http://www.w3.org/Graphics/SVG/1.1/DTD/svg11.dtd">
<svg xmlns:xlink="http://www.w3.org/1999/xlink" width="460.8pt" height="345.6pt" viewBox="0 0 460.8 345.6" xmlns="http://www.w3.org/2000/svg" version="1.1">
 <metadata>
  <rdf:RDF xmlns:dc="http://purl.org/dc/elements/1.1/" xmlns:cc="http://creativecommons.org/ns#" xmlns:rdf="http://www.w3.org/1999/02/22-rdf-syntax-ns#">
   <cc:Work>
    <dc:type rdf:resource="http://purl.org/dc/dcmitype/StillImage"/>
    <dc:date>2022-03-11T22:40:47.260217</dc:date>
    <dc:format>image/svg+xml</dc:format>
    <dc:creator>
     <cc:Agent>
      <dc:title>Matplotlib v3.5.1, https://matplotlib.org/</dc:title>
     </cc:Agent>
    </dc:creator>
   </cc:Work>
  </rdf:RDF>
 </metadata>
 <defs>
  <style type="text/css">*{stroke-linejoin: round; stroke-linecap: butt}</style>
 </defs>
 <g id="figure_1">
  <g id="patch_1">
   <path d="M 0 345.6 
L 460.8 345.6 
L 460.8 0 
L 0 0 
z
" style="fill: #ffffff"/>
  </g>
  <g id="axes_1">
   <g id="patch_2">
    <path d="M 68.553547 307.584 
L 403.766453 307.584 
L 403.766453 41.472 
L 68.553547 41.472 
z
" style="fill: #ffffff"/>
   </g>
   <g id="matplotlib.axis_1">
    <g id="xtick_1">
     <g id="line2d_1">
      <defs>
       <path id="md9e11a2a3a" d="M 0 0 
L 0 3.5 
" style="stroke: #000000; stroke-width: 0.8"/>
      </defs>
      <g>
       <use xlink:href="#md9e11a2a3a" x="68.553547" y="307.584" style="stroke: #000000; stroke-width: 0.8"/>
      </g>
     </g>
     <g id="text_1">
      <!-- 0 -->
      <g transform="translate(65.372297 322.182437)scale(0.1 -0.1)">
       <defs>
        <path id="DejaVuSans-30" d="M 2034 4250 
Q 1547 4250 1301 3770 
Q 1056 3291 1056 2328 
Q 1056 1369 1301 889 
Q 1547 409 2034 409 
Q 2525 409 2770 889 
Q 3016 1369 3016 2328 
Q 3016 3291 2770 3770 
Q 2525 4250 2034 4250 
z
M 2034 4750 
Q 2819 4750 3233 4129 
Q 3647 3509 3647 2328 
Q 3647 1150 3233 529 
Q 2819 -91 2034 -91 
Q 1250 -91 836 529 
Q 422 1150 422 2328 
Q 422 3509 836 4129 
Q 1250 4750 2034 4750 
z
" transform="scale(0.015625)"/>
       </defs>
       <use xlink:href="#DejaVuSans-30"/>
      </g>
     </g>
    </g>
    <g id="xtick_2">
     <g id="line2d_2">
      <g>
       <use xlink:href="#md9e11a2a3a" x="117.561282" y="307.584" style="stroke: #000000; stroke-width: 0.8"/>
      </g>
     </g>
     <g id="text_2">
      <!-- 100 -->
      <g transform="translate(108.017532 322.182437)scale(0.1 -0.1)">
       <defs>
        <path id="DejaVuSans-31" d="M 794 531 
L 1825 531 
L 1825 4091 
L 703 3866 
L 703 4441 
L 1819 4666 
L 2450 4666 
L 2450 531 
L 3481 531 
L 3481 0 
L 794 0 
L 794 531 
z
" transform="scale(0.015625)"/>
       </defs>
       <use xlink:href="#DejaVuSans-31"/>
       <use xlink:href="#DejaVuSans-30" x="63.623047"/>
       <use xlink:href="#DejaVuSans-30" x="127.246094"/>
      </g>
     </g>
    </g>
    <g id="xtick_3">
     <g id="line2d_3">
      <g>
       <use xlink:href="#md9e11a2a3a" x="166.569017" y="307.584" style="stroke: #000000; stroke-width: 0.8"/>
      </g>
     </g>
     <g id="text_3">
      <!-- 200 -->
      <g transform="translate(157.025267 322.182437)scale(0.1 -0.1)">
       <defs>
        <path id="DejaVuSans-32" d="M 1228 531 
L 3431 531 
L 3431 0 
L 469 0 
L 469 531 
Q 828 903 1448 1529 
Q 2069 2156 2228 2338 
Q 2531 2678 2651 2914 
Q 2772 3150 2772 3378 
Q 2772 3750 2511 3984 
Q 2250 4219 1831 4219 
Q 1534 4219 1204 4116 
Q 875 4013 500 3803 
L 500 4441 
Q 881 4594 1212 4672 
Q 1544 4750 1819 4750 
Q 2544 4750 2975 4387 
Q 3406 4025 3406 3419 
Q 3406 3131 3298 2873 
Q 3191 2616 2906 2266 
Q 2828 2175 2409 1742 
Q 1991 1309 1228 531 
z
" transform="scale(0.015625)"/>
       </defs>
       <use xlink:href="#DejaVuSans-32"/>
       <use xlink:href="#DejaVuSans-30" x="63.623047"/>
       <use xlink:href="#DejaVuSans-30" x="127.246094"/>
      </g>
     </g>
    </g>
    <g id="xtick_4">
     <g id="line2d_4">
      <g>
       <use xlink:href="#md9e11a2a3a" x="215.576751" y="307.584" style="stroke: #000000; stroke-width: 0.8"/>
      </g>
     </g>
     <g id="text_4">
      <!-- 300 -->
      <g transform="translate(206.033001 322.182437)scale(0.1 -0.1)">
       <defs>
        <path id="DejaVuSans-33" d="M 2597 2516 
Q 3050 2419 3304 2112 
Q 3559 1806 3559 1356 
Q 3559 666 3084 287 
Q 2609 -91 1734 -91 
Q 1441 -91 1130 -33 
Q 819 25 488 141 
L 488 750 
Q 750 597 1062 519 
Q 1375 441 1716 441 
Q 2309 441 2620 675 
Q 2931 909 2931 1356 
Q 2931 1769 2642 2001 
Q 2353 2234 1838 2234 
L 1294 2234 
L 1294 2753 
L 1863 2753 
Q 2328 2753 2575 2939 
Q 2822 3125 2822 3475 
Q 2822 3834 2567 4026 
Q 2313 4219 1838 4219 
Q 1578 4219 1281 4162 
Q 984 4106 628 3988 
L 628 4550 
Q 988 4650 1302 4700 
Q 1616 4750 1894 4750 
Q 2613 4750 3031 4423 
Q 3450 4097 3450 3541 
Q 3450 3153 3228 2886 
Q 3006 2619 2597 2516 
z
" transform="scale(0.015625)"/>
       </defs>
       <use xlink:href="#DejaVuSans-33"/>
       <use xlink:href="#DejaVuSans-30" x="63.623047"/>
       <use xlink:href="#DejaVuSans-30" x="127.246094"/>
      </g>
     </g>
    </g>
    <g id="xtick_5">
     <g id="line2d_5">
      <g>
       <use xlink:href="#md9e11a2a3a" x="264.584486" y="307.584" style="stroke: #000000; stroke-width: 0.8"/>
      </g>
     </g>
     <g id="text_5">
      <!-- 400 -->
      <g transform="translate(255.040736 322.182437)scale(0.1 -0.1)">
       <defs>
        <path id="DejaVuSans-34" d="M 2419 4116 
L 825 1625 
L 2419 1625 
L 2419 4116 
z
M 2253 4666 
L 3047 4666 
L 3047 1625 
L 3713 1625 
L 3713 1100 
L 3047 1100 
L 3047 0 
L 2419 0 
L 2419 1100 
L 313 1100 
L 313 1709 
L 2253 4666 
z
" transform="scale(0.015625)"/>
       </defs>
       <use xlink:href="#DejaVuSans-34"/>
       <use xlink:href="#DejaVuSans-30" x="63.623047"/>
       <use xlink:href="#DejaVuSans-30" x="127.246094"/>
      </g>
     </g>
    </g>
    <g id="xtick_6">
     <g id="line2d_6">
      <g>
       <use xlink:href="#md9e11a2a3a" x="313.592221" y="307.584" style="stroke: #000000; stroke-width: 0.8"/>
      </g>
     </g>
     <g id="text_6">
      <!-- 500 -->
      <g transform="translate(304.048471 322.182437)scale(0.1 -0.1)">
       <defs>
        <path id="DejaVuSans-35" d="M 691 4666 
L 3169 4666 
L 3169 4134 
L 1269 4134 
L 1269 2991 
Q 1406 3038 1543 3061 
Q 1681 3084 1819 3084 
Q 2600 3084 3056 2656 
Q 3513 2228 3513 1497 
Q 3513 744 3044 326 
Q 2575 -91 1722 -91 
Q 1428 -91 1123 -41 
Q 819 9 494 109 
L 494 744 
Q 775 591 1075 516 
Q 1375 441 1709 441 
Q 2250 441 2565 725 
Q 2881 1009 2881 1497 
Q 2881 1984 2565 2268 
Q 2250 2553 1709 2553 
Q 1456 2553 1204 2497 
Q 953 2441 691 2322 
L 691 4666 
z
" transform="scale(0.015625)"/>
       </defs>
       <use xlink:href="#DejaVuSans-35"/>
       <use xlink:href="#DejaVuSans-30" x="63.623047"/>
       <use xlink:href="#DejaVuSans-30" x="127.246094"/>
      </g>
     </g>
    </g>
    <g id="xtick_7">
     <g id="line2d_7">
      <g>
       <use xlink:href="#md9e11a2a3a" x="362.599956" y="307.584" style="stroke: #000000; stroke-width: 0.8"/>
      </g>
     </g>
     <g id="text_7">
      <!-- 600 -->
      <g transform="translate(353.056206 322.182437)scale(0.1 -0.1)">
       <defs>
        <path id="DejaVuSans-36" d="M 2113 2584 
Q 1688 2584 1439 2293 
Q 1191 2003 1191 1497 
Q 1191 994 1439 701 
Q 1688 409 2113 409 
Q 2538 409 2786 701 
Q 3034 994 3034 1497 
Q 3034 2003 2786 2293 
Q 2538 2584 2113 2584 
z
M 3366 4563 
L 3366 3988 
Q 3128 4100 2886 4159 
Q 2644 4219 2406 4219 
Q 1781 4219 1451 3797 
Q 1122 3375 1075 2522 
Q 1259 2794 1537 2939 
Q 1816 3084 2150 3084 
Q 2853 3084 3261 2657 
Q 3669 2231 3669 1497 
Q 3669 778 3244 343 
Q 2819 -91 2113 -91 
Q 1303 -91 875 529 
Q 447 1150 447 2328 
Q 447 3434 972 4092 
Q 1497 4750 2381 4750 
Q 2619 4750 2861 4703 
Q 3103 4656 3366 4563 
z
" transform="scale(0.015625)"/>
       </defs>
       <use xlink:href="#DejaVuSans-36"/>
       <use xlink:href="#DejaVuSans-30" x="63.623047"/>
       <use xlink:href="#DejaVuSans-30" x="127.246094"/>
      </g>
     </g>
    </g>
   </g>
   <g id="matplotlib.axis_2">
    <g id="ytick_1">
     <g id="line2d_8">
      <defs>
       <path id="m7ba10944d6" d="M 0 0 
L -3.5 0 
" style="stroke: #000000; stroke-width: 0.8"/>
      </defs>
      <g>
       <use xlink:href="#m7ba10944d6" x="68.553547" y="41.472" style="stroke: #000000; stroke-width: 0.8"/>
      </g>
     </g>
     <g id="text_8">
      <!-- 0 -->
      <g transform="translate(55.191047 45.271219)scale(0.1 -0.1)">
       <use xlink:href="#DejaVuSans-30"/>
      </g>
     </g>
    </g>
    <g id="ytick_2">
     <g id="line2d_9">
      <g>
       <use xlink:href="#m7ba10944d6" x="68.553547" y="90.479735" style="stroke: #000000; stroke-width: 0.8"/>
      </g>
     </g>
     <g id="text_9">
      <!-- 100 -->
      <g transform="translate(42.466047 94.278954)scale(0.1 -0.1)">
       <use xlink:href="#DejaVuSans-31"/>
       <use xlink:href="#DejaVuSans-30" x="63.623047"/>
       <use xlink:href="#DejaVuSans-30" x="127.246094"/>
      </g>
     </g>
    </g>
    <g id="ytick_3">
     <g id="line2d_10">
      <g>
       <use xlink:href="#m7ba10944d6" x="68.553547" y="139.48747" style="stroke: #000000; stroke-width: 0.8"/>
      </g>
     </g>
     <g id="text_10">
      <!-- 200 -->
      <g transform="translate(42.466047 143.286688)scale(0.1 -0.1)">
       <use xlink:href="#DejaVuSans-32"/>
       <use xlink:href="#DejaVuSans-30" x="63.623047"/>
       <use xlink:href="#DejaVuSans-30" x="127.246094"/>
      </g>
     </g>
    </g>
    <g id="ytick_4">
     <g id="line2d_11">
      <g>
       <use xlink:href="#m7ba10944d6" x="68.553547" y="188.495204" style="stroke: #000000; stroke-width: 0.8"/>
      </g>
     </g>
     <g id="text_11">
      <!-- 300 -->
      <g transform="translate(42.466047 192.294423)scale(0.1 -0.1)">
       <use xlink:href="#DejaVuSans-33"/>
       <use xlink:href="#DejaVuSans-30" x="63.623047"/>
       <use xlink:href="#DejaVuSans-30" x="127.246094"/>
      </g>
     </g>
    </g>
    <g id="ytick_5">
     <g id="line2d_12">
      <g>
       <use xlink:href="#m7ba10944d6" x="68.553547" y="237.502939" style="stroke: #000000; stroke-width: 0.8"/>
      </g>
     </g>
     <g id="text_12">
      <!-- 400 -->
      <g transform="translate(42.466047 241.302158)scale(0.1 -0.1)">
       <use xlink:href="#DejaVuSans-34"/>
       <use xlink:href="#DejaVuSans-30" x="63.623047"/>
       <use xlink:href="#DejaVuSans-30" x="127.246094"/>
      </g>
     </g>
    </g>
    <g id="ytick_6">
     <g id="line2d_13">
      <g>
       <use xlink:href="#m7ba10944d6" x="68.553547" y="286.510674" style="stroke: #000000; stroke-width: 0.8"/>
      </g>
     </g>
     <g id="text_13">
      <!-- 500 -->
      <g transform="translate(42.466047 290.309893)scale(0.1 -0.1)">
       <use xlink:href="#DejaVuSans-35"/>
       <use xlink:href="#DejaVuSans-30" x="63.623047"/>
       <use xlink:href="#DejaVuSans-30" x="127.246094"/>
      </g>
     </g>
    </g>
   </g>
   <g id="line2d_14">
    <path d="M 230.279072 70.386564 
L 229.788994 70.876641 
L 229.788994 71.366718 
L 229.298917 71.856796 
L 229.298917 72.83695 
L 228.80884 73.327028 
L 228.80884 73.817105 
L 228.318762 74.307182 
L 228.318762 74.79726 
L 227.828685 75.287337 
L 227.828685 76.267492 
L 227.338608 76.757569 
L 227.338608 77.247646 
L 226.84853 77.737724 
L 226.84853 78.227801 
L 226.358453 78.717878 
L 226.358453 79.698033 
L 225.868376 80.18811 
L 225.868376 80.678188 
L 225.378298 81.168265 
L 225.378298 82.14842 
L 224.888221 82.638497 
L 224.888221 83.128575 
L 224.398144 83.618652 
L 224.398144 84.108729 
L 223.908066 84.598807 
L 223.908066 85.578961 
L 223.417989 86.069039 
L 223.417989 86.559116 
L 222.927912 87.049193 
L 222.927912 87.539271 
L 222.437834 88.029348 
L 222.437834 89.009503 
L 221.947757 89.49958 
L 221.947757 89.989657 
L 221.45768 90.479735 
L 221.45768 90.969812 
L 220.967602 91.45989 
L 220.967602 92.440044 
L 220.477525 92.930122 
L 220.477525 93.420199 
L 219.987448 93.910276 
L 219.987448 94.400354 
L 219.49737 94.890431 
L 219.49737 95.870586 
L 219.007293 96.360663 
L 219.007293 96.85074 
L 218.517215 97.340818 
L 218.517215 97.830895 
L 218.027138 98.320972 
L 218.027138 99.301127 
L 217.537061 99.791204 
L 217.537061 100.281282 
L 217.046983 100.771359 
L 217.046983 101.751514 
L 216.556906 102.241591 
L 216.556906 102.731669 
L 216.066829 103.221746 
L 216.066829 103.711823 
L 215.576751 104.201901 
L 215.576751 105.182055 
L 215.086674 105.672133 
L 215.086674 106.16221 
L 214.596597 106.652287 
L 214.596597 107.142365 
L 214.106519 107.632442 
L 214.106519 108.612597 
L 213.616442 109.102674 
L 213.616442 109.592751 
L 213.126365 110.082829 
L 213.126365 110.572906 
L 212.636287 111.062983 
L 212.636287 112.043138 
L 212.14621 112.533215 
L 212.14621 113.023293 
L 211.656133 113.51337 
L 211.656133 114.003448 
L 211.166055 114.493525 
L 211.166055 115.47368 
L 210.675978 115.963757 
L 210.675978 116.453834 
L 210.185901 116.943912 
L 210.185901 117.433989 
L 209.695823 117.924066 
L 209.695823 118.904221 
L 209.205746 119.394298 
L 209.205746 119.884376 
L 208.715669 120.374453 
L 208.715669 121.354608 
L 208.225591 121.844685 
L 208.225591 122.334762 
L 207.735514 122.82484 
L 207.735514 123.314917 
L 207.245436 123.804994 
L 207.245436 124.785149 
L 206.755359 125.275227 
L 206.755359 125.765304 
L 206.265282 126.255381 
L 206.265282 126.745459 
L 205.775204 127.235536 
L 205.775204 128.215691 
L 205.285127 128.705768 
L 205.285127 129.195845 
L 204.79505 129.685923 
L 204.79505 130.176 
L 204.304972 130.666077 
L 204.304972 131.646232 
L 203.814895 132.136309 
L 203.814895 132.626387 
L 203.324818 133.116464 
L 203.324818 133.606541 
L 202.83474 134.096619 
L 202.83474 135.076773 
L 202.344663 135.566851 
L 202.344663 136.056928 
L 201.854586 136.547006 
L 201.854586 137.037083 
L 201.364508 137.52716 
L 201.364508 138.507315 
L 200.874431 138.997392 
L 200.874431 139.48747 
L 200.384354 139.977547 
L 200.384354 140.957702 
L 199.894276 141.447779 
L 199.894276 141.937856 
L 199.404199 142.427934 
L 199.404199 142.918011 
L 198.914122 143.408088 
L 198.914122 144.388243 
L 198.424044 144.87832 
L 186.662188 145.368398 
L 112.170431 146.83863 
L 98.938343 147.328707 
L 98.448265 147.818785 
L 98.448265 148.798939 
L 98.938343 149.289017 
L 99.918497 149.779094 
L 100.408575 150.269171 
L 103.349039 151.739403 
L 103.839116 152.229481 
L 106.77958 153.699713 
L 107.269657 154.18979 
L 110.210122 155.660022 
L 110.700199 156.150099 
L 113.640663 157.620331 
L 114.13074 158.110409 
L 117.071204 159.580641 
L 117.561282 160.070718 
L 120.501746 161.54095 
L 120.991823 162.031028 
L 123.932287 163.50126 
L 124.422365 163.991337 
L 127.362829 165.461569 
L 127.852906 165.951646 
L 130.79337 167.421878 
L 131.283448 167.911956 
L 134.223912 169.382188 
L 134.713989 169.872265 
L 137.654453 171.342497 
L 138.14453 171.832575 
L 141.084994 173.302807 
L 141.575072 173.792884 
L 144.515536 175.263116 
L 145.005613 175.753193 
L 147.946077 177.223425 
L 148.436155 177.713503 
L 151.376619 179.183735 
L 151.866696 179.673812 
L 154.80716 181.144044 
L 155.297238 181.634122 
L 158.237702 183.104354 
L 158.727779 183.594431 
L 161.668243 185.064663 
L 162.15832 185.55474 
L 165.098785 187.024972 
L 165.588862 187.51505 
L 168.529326 188.985282 
L 169.019403 189.475359 
L 171.959867 190.945591 
L 172.449945 191.435669 
L 175.390409 192.905901 
L 175.880486 193.395978 
L 176.860641 193.886055 
L 176.860641 194.86621 
L 176.370564 195.356287 
L 176.370564 196.336442 
L 175.880486 196.826519 
L 175.880486 197.316597 
L 175.390409 197.806674 
L 175.390409 198.786829 
L 174.900331 199.276906 
L 174.900331 199.766983 
L 174.410254 200.257061 
L 174.410254 201.237215 
L 173.920177 201.727293 
L 173.920177 202.707448 
L 173.430099 203.197525 
L 173.430099 203.687602 
L 172.940022 204.17768 
L 172.940022 205.157834 
L 172.449945 205.647912 
L 172.449945 206.137989 
L 171.959867 206.628066 
L 171.959867 207.608221 
L 171.46979 208.098298 
L 171.46979 209.078453 
L 170.979713 209.56853 
L 170.979713 210.058608 
L 170.489635 210.548685 
L 170.489635 211.52884 
L 169.999558 212.018917 
L 169.999558 212.508994 
L 169.509481 212.999072 
L 169.509481 213.979227 
L 169.019403 214.469304 
L 169.019403 214.959381 
L 168.529326 215.449459 
L 168.529326 216.429613 
L 168.039249 216.919691 
L 168.039249 217.899845 
L 167.549171 218.389923 
L 167.549171 218.88 
L 167.059094 219.370077 
L 167.059094 220.350232 
L 166.569017 220.840309 
L 166.569017 221.330387 
L 166.078939 221.820464 
L 166.078939 222.800619 
L 165.588862 223.290696 
L 165.588862 224.270851 
L 165.098785 224.760928 
L 165.098785 225.251006 
L 164.608707 225.741083 
L 164.608707 226.721238 
L 164.11863 227.211315 
L 164.11863 227.701392 
L 163.628552 228.19147 
L 163.628552 229.171624 
L 163.138475 229.661702 
L 163.138475 230.641856 
L 162.648398 231.131934 
L 162.648398 231.622011 
L 162.15832 232.112088 
L 162.15832 233.092243 
L 161.668243 233.58232 
L 161.668243 234.072398 
L 161.178166 234.562475 
L 161.178166 235.54263 
L 160.688088 236.032707 
L 160.688088 237.012862 
L 160.198011 237.502939 
L 160.198011 237.993017 
L 159.707934 238.483094 
L 159.707934 239.463249 
L 159.217856 239.953326 
L 159.217856 240.443403 
L 158.727779 240.933481 
L 158.727779 241.913635 
L 158.237702 242.403713 
L 158.237702 243.383867 
L 157.747624 243.873945 
L 157.747624 244.364022 
L 157.257547 244.854099 
L 157.257547 245.834254 
L 156.76747 246.324331 
L 156.76747 246.814409 
L 156.277392 247.304486 
L 156.277392 248.284641 
L 155.787315 248.774718 
L 155.787315 249.754873 
L 155.297238 250.24495 
L 155.297238 250.735028 
L 154.80716 251.225105 
L 154.80716 252.20526 
L 154.317083 252.695337 
L 154.317083 253.185414 
L 153.827006 253.675492 
L 153.827006 254.655646 
L 153.336928 255.145724 
L 153.336928 255.635801 
L 152.846851 256.125878 
L 152.846851 257.106033 
L 152.356773 257.59611 
L 152.356773 258.576265 
L 151.866696 259.066343 
L 151.866696 259.55642 
L 151.376619 260.046497 
L 151.376619 261.026652 
L 150.886541 261.516729 
L 150.886541 262.006807 
L 150.396464 262.496884 
L 150.396464 263.477039 
L 149.906387 263.967116 
L 149.906387 264.947271 
L 149.416309 265.437348 
L 149.416309 265.927425 
L 148.926232 266.417503 
L 148.926232 267.397657 
L 148.436155 267.887735 
L 148.436155 268.86789 
L 148.926232 269.357967 
L 149.906387 269.357967 
L 150.396464 268.86789 
L 150.886541 268.86789 
L 151.376619 268.377812 
L 151.866696 268.377812 
L 152.356773 267.887735 
L 152.846851 267.887735 
L 153.336928 267.397657 
L 153.827006 267.397657 
L 154.317083 266.90758 
L 154.80716 266.90758 
L 155.787315 265.927425 
L 156.277392 265.927425 
L 156.76747 265.437348 
L 157.257547 265.437348 
L 157.747624 264.947271 
L 158.237702 264.947271 
L 158.727779 264.457193 
L 159.217856 264.457193 
L 159.707934 263.967116 
L 160.198011 263.967116 
L 160.688088 263.477039 
L 161.178166 263.477039 
L 161.668243 262.986961 
L 162.15832 262.986961 
L 162.648398 262.496884 
L 163.138475 262.496884 
L 164.11863 261.516729 
L 164.608707 261.516729 
L 165.098785 261.026652 
L 165.588862 261.026652 
L 166.078939 260.536575 
L 166.569017 260.536575 
L 167.059094 260.046497 
L 167.549171 260.046497 
L 168.039249 259.55642 
L 168.529326 259.55642 
L 169.019403 259.066343 
L 169.509481 259.066343 
L 169.999558 258.576265 
L 170.489635 258.576265 
L 170.979713 258.086188 
L 171.46979 258.086188 
L 172.449945 257.106033 
L 172.940022 257.106033 
L 173.430099 256.615956 
L 173.920177 256.615956 
L 174.410254 256.125878 
L 174.900331 256.125878 
L 175.390409 255.635801 
L 175.880486 255.635801 
L 176.370564 255.145724 
L 176.860641 255.145724 
L 177.350718 254.655646 
L 177.840796 254.655646 
L 178.330873 254.165569 
L 178.82095 254.165569 
L 179.311028 253.675492 
L 179.801105 253.675492 
L 180.78126 252.695337 
L 181.271337 252.695337 
L 181.761414 252.20526 
L 182.251492 252.20526 
L 182.741569 251.715182 
L 183.231646 251.715182 
L 183.721724 251.225105 
L 184.211801 251.225105 
L 184.701878 250.735028 
L 185.191956 250.735028 
L 185.682033 250.24495 
L 186.17211 250.24495 
L 186.662188 249.754873 
L 187.152265 249.754873 
L 188.13242 248.774718 
L 188.622497 248.774718 
L 189.112575 248.284641 
L 189.602652 248.284641 
L 190.092729 247.794564 
L 190.582807 247.794564 
L 191.072884 247.304486 
L 191.562961 247.304486 
L 192.053039 246.814409 
L 192.543116 246.814409 
L 193.033193 246.324331 
L 193.523271 246.324331 
L 194.013348 245.834254 
L 194.503425 245.834254 
L 194.993503 245.344177 
L 195.48358 245.344177 
L 196.463735 244.364022 
L 196.953812 244.364022 
L 197.44389 243.873945 
L 197.933967 243.873945 
L 198.424044 243.383867 
L 198.914122 243.383867 
L 199.404199 242.89379 
L 199.894276 242.89379 
L 200.384354 242.403713 
L 200.874431 242.403713 
L 201.364508 241.913635 
L 201.854586 241.913635 
L 202.344663 241.423558 
L 202.83474 241.423558 
L 203.324818 240.933481 
L 203.814895 240.933481 
L 204.79505 239.953326 
L 205.285127 239.953326 
L 205.775204 239.463249 
L 206.265282 239.463249 
L 206.755359 238.973171 
L 207.245436 238.973171 
L 207.735514 238.483094 
L 208.225591 238.483094 
L 208.715669 237.993017 
L 209.205746 237.993017 
L 209.695823 237.502939 
L 210.185901 237.502939 
L 210.675978 237.012862 
L 211.166055 237.012862 
L 211.656133 236.522785 
L 212.14621 236.522785 
L 213.126365 235.54263 
L 213.616442 235.54263 
L 214.106519 235.052552 
L 214.596597 235.052552 
L 215.086674 234.562475 
L 215.576751 234.562475 
L 216.066829 234.072398 
L 216.556906 234.072398 
L 217.046983 233.58232 
L 217.537061 233.58232 
L 218.027138 233.092243 
L 218.517215 233.092243 
L 219.007293 232.602166 
L 219.49737 232.602166 
L 219.987448 232.112088 
L 220.477525 232.112088 
L 221.45768 231.131934 
L 221.947757 231.131934 
L 222.437834 230.641856 
L 222.927912 230.641856 
L 223.417989 230.151779 
L 223.908066 230.151779 
L 224.398144 229.661702 
L 224.888221 229.661702 
L 225.378298 229.171624 
L 225.868376 229.171624 
L 226.358453 228.681547 
L 226.84853 228.681547 
L 227.338608 228.19147 
L 227.828685 228.19147 
L 228.80884 227.211315 
L 229.298917 227.211315 
L 229.788994 226.721238 
L 230.279072 226.721238 
L 230.769149 226.23116 
L 231.259227 226.721238 
L 231.749304 226.721238 
L 232.239381 227.211315 
L 232.729459 227.211315 
L 233.709613 228.19147 
L 234.199691 228.19147 
L 234.689768 228.681547 
L 235.179845 228.681547 
L 235.669923 229.171624 
L 236.16 229.171624 
L 236.650077 229.661702 
L 237.140155 229.661702 
L 237.630232 230.151779 
L 238.120309 230.151779 
L 238.610387 230.641856 
L 239.100464 230.641856 
L 239.590541 231.131934 
L 240.080619 231.131934 
L 241.060773 232.112088 
L 241.550851 232.112088 
L 242.040928 232.602166 
L 242.531006 232.602166 
L 243.021083 233.092243 
L 243.51116 233.092243 
L 244.001238 233.58232 
L 244.491315 233.58232 
L 244.981392 234.072398 
L 245.47147 234.072398 
L 245.961547 234.562475 
L 246.451624 234.562475 
L 246.941702 235.052552 
L 247.431779 235.052552 
L 248.411934 236.032707 
L 248.902011 236.032707 
L 249.392088 236.522785 
L 249.882166 236.522785 
L 250.372243 237.012862 
L 250.86232 237.012862 
L 251.352398 237.502939 
L 251.842475 237.502939 
L 252.332552 237.993017 
L 252.82263 237.993017 
L 253.312707 238.483094 
L 253.802785 238.483094 
L 254.292862 238.973171 
L 254.782939 238.973171 
L 255.763094 239.953326 
L 256.253171 239.953326 
L 256.743249 240.443403 
L 257.233326 240.443403 
L 257.723403 240.933481 
L 258.213481 240.933481 
L 258.703558 241.423558 
L 259.193635 241.423558 
L 259.683713 241.913635 
L 260.17379 241.913635 
L 260.663867 242.403713 
L 261.153945 242.403713 
L 261.644022 242.89379 
L 262.134099 242.89379 
L 263.114254 243.873945 
L 263.604331 243.873945 
L 264.094409 244.364022 
L 264.584486 244.364022 
L 265.074564 244.854099 
L 265.564641 244.854099 
L 266.054718 245.344177 
L 266.544796 245.344177 
L 267.034873 245.834254 
L 267.52495 245.834254 
L 268.015028 246.324331 
L 268.505105 246.324331 
L 268.995182 246.814409 
L 269.48526 246.814409 
L 270.465414 247.794564 
L 270.955492 247.794564 
L 271.445569 248.284641 
L 271.935646 248.284641 
L 272.425724 248.774718 
L 272.915801 248.774718 
L 273.405878 249.264796 
L 273.895956 249.264796 
L 274.386033 249.754873 
L 274.87611 249.754873 
L 275.366188 250.24495 
L 275.856265 250.24495 
L 276.346343 250.735028 
L 276.83642 250.735028 
L 277.816575 251.715182 
L 278.306652 251.715182 
L 278.796729 252.20526 
L 279.286807 252.20526 
L 279.776884 252.695337 
L 280.266961 252.695337 
L 280.757039 253.185414 
L 281.247116 253.185414 
L 281.737193 253.675492 
L 282.227271 253.675492 
L 282.717348 254.165569 
L 283.207425 254.165569 
L 283.697503 254.655646 
L 284.18758 254.655646 
L 285.167735 255.635801 
L 285.657812 255.635801 
L 286.14789 256.125878 
L 286.637967 256.125878 
L 287.128044 256.615956 
L 287.618122 256.615956 
L 288.108199 257.106033 
L 288.598276 257.106033 
L 289.088354 257.59611 
L 289.578431 257.59611 
L 290.068508 258.086188 
L 290.558586 258.086188 
L 291.048663 258.576265 
L 291.53874 258.576265 
L 292.518895 259.55642 
L 293.008972 259.55642 
L 293.49905 260.046497 
L 293.989127 260.046497 
L 294.479204 260.536575 
L 294.969282 260.536575 
L 295.459359 261.026652 
L 295.949436 261.026652 
L 296.439514 261.516729 
L 296.929591 261.516729 
L 297.419669 262.006807 
L 297.909746 262.006807 
L 298.399823 262.496884 
L 298.889901 262.496884 
L 299.870055 263.477039 
L 300.360133 263.477039 
L 300.85021 263.967116 
L 301.340287 263.967116 
L 301.830365 264.457193 
L 302.320442 264.457193 
L 302.810519 264.947271 
L 303.300597 264.947271 
L 303.790674 265.437348 
L 304.280751 265.437348 
L 304.770829 265.927425 
L 305.260906 265.927425 
L 305.750983 266.417503 
L 306.241061 266.417503 
L 307.221215 267.397657 
L 307.711293 267.397657 
L 308.20137 267.887735 
L 308.691448 267.887735 
L 309.181525 268.377812 
L 309.671602 268.377812 
L 310.16168 268.86789 
L 310.651757 268.86789 
L 311.141834 269.357967 
L 312.121989 269.357967 
L 312.612066 268.86789 
L 312.612066 267.887735 
L 312.121989 267.397657 
L 312.121989 266.417503 
L 311.631912 265.927425 
L 311.631912 264.947271 
L 311.141834 264.457193 
L 311.141834 263.967116 
L 310.651757 263.477039 
L 310.651757 262.496884 
L 310.16168 262.006807 
L 310.16168 261.516729 
L 309.671602 261.026652 
L 309.671602 260.046497 
L 309.181525 259.55642 
L 309.181525 259.066343 
L 308.691448 258.576265 
L 308.691448 257.59611 
L 308.20137 257.106033 
L 308.20137 256.125878 
L 307.711293 255.635801 
L 307.711293 255.145724 
L 307.221215 254.655646 
L 307.221215 253.675492 
L 306.731138 253.185414 
L 306.731138 252.695337 
L 306.241061 252.20526 
L 306.241061 251.225105 
L 305.750983 250.735028 
L 305.750983 249.754873 
L 305.260906 249.264796 
L 305.260906 248.774718 
L 304.770829 248.284641 
L 304.770829 247.304486 
L 304.280751 246.814409 
L 304.280751 246.324331 
L 303.790674 245.834254 
L 303.790674 244.854099 
L 303.300597 244.364022 
L 303.300597 243.383867 
L 302.810519 242.89379 
L 302.810519 242.403713 
L 302.320442 241.913635 
L 302.320442 240.933481 
L 301.830365 240.443403 
L 301.830365 239.953326 
L 301.340287 239.463249 
L 301.340287 238.483094 
L 300.85021 237.993017 
L 300.85021 237.012862 
L 300.360133 236.522785 
L 300.360133 236.032707 
L 299.870055 235.54263 
L 299.870055 234.562475 
L 299.379978 234.072398 
L 299.379978 233.58232 
L 298.889901 233.092243 
L 298.889901 232.112088 
L 298.399823 231.622011 
L 298.399823 230.641856 
L 297.909746 230.151779 
L 297.909746 229.661702 
L 297.419669 229.171624 
L 297.419669 228.19147 
L 296.929591 227.701392 
L 296.929591 227.211315 
L 296.439514 226.721238 
L 296.439514 225.741083 
L 295.949436 225.251006 
L 295.949436 224.270851 
L 295.459359 223.780773 
L 295.459359 223.290696 
L 294.969282 222.800619 
L 294.969282 221.820464 
L 294.479204 221.330387 
L 294.479204 220.840309 
L 293.989127 220.350232 
L 293.989127 219.370077 
L 293.49905 218.88 
L 293.49905 218.389923 
L 293.008972 217.899845 
L 293.008972 216.919691 
L 292.518895 216.429613 
L 292.518895 215.449459 
L 292.028818 214.959381 
L 292.028818 214.469304 
L 291.53874 213.979227 
L 291.53874 212.999072 
L 291.048663 212.508994 
L 291.048663 212.018917 
L 290.558586 211.52884 
L 290.558586 210.548685 
L 290.068508 210.058608 
L 290.068508 209.078453 
L 289.578431 208.588376 
L 289.578431 208.098298 
L 289.088354 207.608221 
L 289.088354 206.628066 
L 288.598276 206.137989 
L 288.598276 205.647912 
L 288.108199 205.157834 
L 288.108199 204.17768 
L 287.618122 203.687602 
L 287.618122 202.707448 
L 287.128044 202.21737 
L 287.128044 201.727293 
L 286.637967 201.237215 
L 286.637967 200.257061 
L 286.14789 199.766983 
L 286.14789 199.276906 
L 285.657812 198.786829 
L 285.657812 197.806674 
L 285.167735 197.316597 
L 285.167735 196.336442 
L 284.677657 195.846365 
L 284.677657 195.356287 
L 284.18758 194.86621 
L 284.18758 193.886055 
L 285.167735 193.395978 
L 285.657812 192.905901 
L 288.598276 191.435669 
L 289.088354 190.945591 
L 292.028818 189.475359 
L 292.518895 188.985282 
L 295.459359 187.51505 
L 295.949436 187.024972 
L 298.889901 185.55474 
L 299.379978 185.064663 
L 302.320442 183.594431 
L 302.810519 183.104354 
L 305.750983 181.634122 
L 306.241061 181.144044 
L 309.181525 179.673812 
L 309.671602 179.183735 
L 312.612066 177.713503 
L 313.102144 177.223425 
L 316.042608 175.753193 
L 316.532685 175.263116 
L 319.473149 173.792884 
L 319.963227 173.302807 
L 322.903691 171.832575 
L 323.393768 171.342497 
L 326.334232 169.872265 
L 326.824309 169.382188 
L 329.764773 167.911956 
L 330.254851 167.421878 
L 333.195315 165.951646 
L 333.685392 165.461569 
L 336.625856 163.991337 
L 337.115934 163.50126 
L 340.056398 162.031028 
L 340.546475 161.54095 
L 343.486939 160.070718 
L 343.977017 159.580641 
L 346.917481 158.110409 
L 347.407558 157.620331 
L 350.348022 156.150099 
L 350.838099 155.660022 
L 353.778564 154.18979 
L 354.268641 153.699713 
L 357.209105 152.229481 
L 357.699182 151.739403 
L 360.639646 150.269171 
L 361.129724 149.779094 
L 362.109878 149.289017 
L 362.599956 148.798939 
L 362.599956 147.818785 
L 362.109878 147.328707 
L 348.87779 146.83863 
L 274.386033 145.368398 
L 262.624177 144.87832 
L 262.624177 144.388243 
L 262.134099 143.898166 
L 262.134099 143.408088 
L 261.644022 142.918011 
L 261.644022 142.427934 
L 261.153945 141.937856 
L 261.153945 140.957702 
L 260.663867 140.467624 
L 260.663867 139.977547 
L 260.17379 139.48747 
L 260.17379 138.507315 
L 259.683713 138.017238 
L 259.683713 137.52716 
L 259.193635 137.037083 
L 259.193635 136.547006 
L 258.703558 136.056928 
L 258.703558 135.076773 
L 258.213481 134.586696 
L 258.213481 134.096619 
L 257.723403 133.606541 
L 257.723403 133.116464 
L 257.233326 132.626387 
L 257.233326 131.646232 
L 256.743249 131.156155 
L 256.743249 130.666077 
L 256.253171 130.176 
L 256.253171 129.195845 
L 255.763094 128.705768 
L 255.763094 128.215691 
L 255.273017 127.725613 
L 255.273017 127.235536 
L 254.782939 126.745459 
L 254.782939 125.765304 
L 254.292862 125.275227 
L 254.292862 124.785149 
L 253.802785 124.295072 
L 253.802785 123.314917 
L 253.312707 122.82484 
L 253.312707 122.334762 
L 252.82263 121.844685 
L 252.82263 121.354608 
L 252.332552 120.86453 
L 252.332552 119.884376 
L 251.842475 119.394298 
L 251.842475 118.904221 
L 251.352398 118.414144 
L 251.352398 117.433989 
L 250.86232 116.943912 
L 250.86232 116.453834 
L 250.372243 115.963757 
L 250.372243 115.47368 
L 249.882166 114.983602 
L 249.882166 114.003448 
L 249.392088 113.51337 
L 249.392088 113.023293 
L 248.902011 112.533215 
L 248.902011 111.553061 
L 248.411934 111.062983 
L 248.411934 110.572906 
L 247.921856 110.082829 
L 247.921856 109.592751 
L 247.431779 109.102674 
L 247.431779 108.122519 
L 246.941702 107.632442 
L 246.941702 107.142365 
L 246.451624 106.652287 
L 246.451624 106.16221 
L 245.961547 105.672133 
L 245.961547 104.691978 
L 245.47147 104.201901 
L 245.47147 103.711823 
L 244.981392 103.221746 
L 244.981392 102.241591 
L 244.491315 101.751514 
L 244.491315 101.261436 
L 244.001238 100.771359 
L 244.001238 100.281282 
L 243.51116 99.791204 
L 243.51116 98.81105 
L 243.021083 98.320972 
L 243.021083 97.830895 
L 242.531006 97.340818 
L 242.531006 96.360663 
L 242.040928 95.870586 
L 242.040928 95.380508 
L 241.550851 94.890431 
L 241.550851 94.400354 
L 241.060773 93.910276 
L 241.060773 92.930122 
L 240.570696 92.440044 
L 240.570696 91.949967 
L 240.080619 91.45989 
L 240.080619 90.479735 
L 239.590541 89.989657 
L 239.590541 89.49958 
L 239.100464 89.009503 
L 239.100464 88.519425 
L 238.610387 88.029348 
L 238.610387 87.049193 
L 238.120309 86.559116 
L 238.120309 86.069039 
L 237.630232 85.578961 
L 237.630232 85.088884 
L 237.140155 84.598807 
L 237.140155 83.618652 
L 236.650077 83.128575 
L 236.650077 82.638497 
L 236.16 82.14842 
L 236.16 81.168265 
L 235.669923 80.678188 
L 235.669923 80.18811 
L 235.179845 79.698033 
L 235.179845 79.207956 
L 234.689768 78.717878 
L 234.689768 77.737724 
L 234.199691 77.247646 
L 234.199691 76.757569 
L 233.709613 76.267492 
L 233.709613 75.287337 
L 233.219536 74.79726 
L 233.219536 74.307182 
L 232.729459 73.817105 
L 232.729459 73.327028 
L 232.239381 72.83695 
L 232.239381 71.856796 
L 231.749304 71.366718 
L 231.749304 70.876641 
L 231.259227 70.386564 
L 230.769149 70.386564 
L 230.769149 70.386564 
" clip-path="url(#p134d454c9f)" style="fill: none; stroke: #000000; stroke-width: 1.5; stroke-linecap: square"/>
   </g>
   <g id="patch_3">
    <path d="M 68.553547 307.584 
L 68.553547 41.472 
" style="fill: none; stroke: #000000; stroke-width: 0.8; stroke-linejoin: miter; stroke-linecap: square"/>
   </g>
   <g id="patch_4">
    <path d="M 403.766453 307.584 
L 403.766453 41.472 
" style="fill: none; stroke: #000000; stroke-width: 0.8; stroke-linejoin: miter; stroke-linecap: square"/>
   </g>
   <g id="patch_5">
    <path d="M 68.553547 307.584 
L 403.766453 307.584 
" style="fill: none; stroke: #000000; stroke-width: 0.8; stroke-linejoin: miter; stroke-linecap: square"/>
   </g>
   <g id="patch_6">
    <path d="M 68.553547 41.472 
L 403.766453 41.472 
" style="fill: none; stroke: #000000; stroke-width: 0.8; stroke-linejoin: miter; stroke-linecap: square"/>
   </g>
  </g>
 </g>
 <defs>
  <clipPath id="p134d454c9f">
   <rect x="68.553547" y="41.472" width="335.212906" height="266.112"/>
  </clipPath>
 </defs>
</svg>
